{"accessors":[{"bufferView":0,"componentType":5121,"count":6,"max":[3],"min":[0],"type":"SCALAR"},{"bufferView":1,"componentType":5126,"count":4,"max":[10.0,3.988841399404919e-07,7.551666736602783],"min":[-10.0,-3.988841399404919e-07,-7.551666736602783],"type":"VEC3"},{"bufferView":2,"componentType":5126,"count":4,"max":[0.0,1.0,5.282067405687485e-08],"min":[0.0,1.0,5.282067405687485e-08],"type":"VEC3"},{"bufferView":3,"componentType":5126,"count":4,"max":[0.9999130964279175,0.8788193464279175],"min":[8.684396743774414e-05,0.12378382682800293],"type":"VEC2"}],"asset":{"generator":"Soft8Soft Verge3D for Blender add-on","version":"2.0"},"bufferViews":[{"buffer":0,"byteLength":6,"byteOffset":0,"target":34963},{"buffer":0,"byteLength":48,"byteOffset":8,"target":34962},{"buffer":0,"byteLength":48,"byteOffset":56,"target":34962},{"buffer":0,"byteLength":32,"byteOffset":104,"target":34962}],"buffers":[{"byteLength":136,"uri":"mockup_wood.bin"}],"cameras":[{"extensions":{"S8S_v3d_camera_data":{"controls":"NONE","enablePan":false,"moveSpeed":1.0,"rotateSpeed":1.0,"viewportFitInitialAspect":1.3245033196234755,"viewportFitType":"AUTO"}},"name":"Camera","perspective":{"aspectRatio":1.3245033196234755,"yfov":0.5307775716908755,"zfar":100.0,"znear":0.10000000149011612},"type":"perspective"}],"extensionsUsed":["S8S_v3d_texture_data","S8S_v3d_material_data","S8S_v3d_camera_data","S8S_v3d_mesh_data","S8S_v3d_node_data","S8S_v3d_scene_data"],"images":[{"uri":"1_a.jpg"},{"uri":"1.jpg"},{"uri":"logo pixcoop x1024.png"}],"materials":[{"alphaCutoff":0.5001,"alphaMode":"MASK","extensions":{"S8S_v3d_material_data":{"nodeGraph":{"edges":[{"fromNode":4,"fromOutput":0,"toInput":1,"toNode":0},{"fromNode":9,"fromOutput":0,"toInput":1,"toNode":1},{"fromNode":10,"fromOutput":1,"toInput":0,"toNode":2},{"fromNode":2,"fromOutput":0,"toInput":1,"toNode":3},{"fromNode":0,"fromOutput":0,"toInput":2,"toNode":2},{"fromNode":8,"fromOutput":0,"toInput":0,"toNode":7},{"fromNode":3,"fromOutput":0,"toInput":2,"toNode":1},{"fromNode":5,"fromOutput":0,"toInput":0,"toNode":4},{"fromNode":1,"fromOutput":0,"toInput":0,"toNode":8},{"fromNode":5,"fromOutput":2,"toInput":0,"toNode":6},{"fromNode":5,"fromOutput":0,"toInput":0,"toNode":9},{"fromNode":6,"fromOutput":0,"toInput":0,"toNode":10}],"nodes":[{"inputs":[1.0,[0.0,0.0,0.0,1.0]],"is_active_output":false,"name":"Invertir","outputs":[[0.0,0.0,0.0,0.0]],"type":"INVERT_BL"},{"blendType":"MIX","inputs":[0.19999994337558746,[0.5,0.5,0.5,1.0],[1.0,1.0,1.0,1.0]],"is_active_output":false,"name":"Mezclar","outputs":[[0.0,0.0,0.0,0.0]],"type":"MIX_RGB_BL","useClamp":false},{"blendType":"SUBTRACT","inputs":[1.0,[1.0,1.0,1.0,1.0],[1.0,1.0,1.0,1.0]],"is_active_output":false,"name":"Mezclar.001","outputs":[[0.0,0.0,0.0,0.0]],"type":"MIX_RGB_BL","useClamp":false},{"inputs":[1.0,[0.0,0.0,0.0,1.0]],"is_active_output":false,"name":"Invertir.001","outputs":[[0.0,0.0,0.0,0.0]],"type":"INVERT_BL"},{"inputs":[[0.0,0.0,0.0]],"is_active_output":false,"name":"Imagen.001","outputs":[[0.0,0.0,0.0,0.0],0.0],"projection":"FLAT","projectionBlend":0.0,"texture":0,"type":"TEX_IMAGE_BL"},{"inputs":[],"is_active_output":false,"name":"Coordenadas de texturizado.001","object":-1,"outputs":[[0.0,0.0,0.0],[0.0,0.0,0.0],[0.0,0.0,0.0],[0.0,0.0,0.0],[0.0,0.0,0.0],[0.0,0.0,0.0],[0.0,0.0,0.0]],"type":"TEX_COORD_BL"},{"inputs":[[0.0,0.0,0.0],[0.0,0.0,0.0],[0.0,0.0,0.0],[1.0,1.0,1.0]],"is_active_output":false,"name":"Mapeo","outputs":[[0.0,0.0,0.0]],"type":"MAPPING_BL","vectorType":"POINT"},{"inputs":[[0,0,0,0],[0,0,0,0],[0.0,0.0,0.0]],"is_active_output":true,"name":"Material Output","outputs":[],"type":"OUTPUT_MATERIAL_BL"},{"inputs":[[1.0,1.0,1.0,1.0],1.0],"is_active_output":false,"name":"Emisión","outputs":[[0,0,0,0]],"type":"EMISSION_BL"},{"inputs":[[0.0,0.0,0.0]],"is_active_output":false,"name":"Imagen","outputs":[[0.0,0.0,0.0,0.0],0.0],"projection":"FLAT","projectionBlend":0.0,"texture":1,"type":"TEX_IMAGE_BL"},{"clampToEdgeNoExtend":true,"inputs":[[0.0,0.0,0.0]],"is_active_output":false,"name":"Imagen.002","outputs":[[0.0,0.0,0.0,0.0],0.0],"projection":"FLAT","projectionBlend":0.0,"texture":2,"type":"TEX_IMAGE_BL"}]}}},"name":"Material.001"},{"extensions":{"S8S_v3d_material_data":{"nodeGraph":{"edges":[{"fromNode":1,"fromOutput":0,"toInput":0,"toNode":0}],"nodes":[{"inputs":[[0,0,0,0],[0,0,0,0]],"is_active_output":true,"name":"World Output","outputs":[],"type":"OUTPUT_WORLD_BL"},{"inputs":[[1.0,1.0,1.0,1.0],1.0],"is_active_output":false,"name":"Background","outputs":[[0,0,0,0]],"type":"BACKGROUND_BL"}]}}},"name":"Verge3D_Environment_World"}],"meshes":[{"extensions":{"S8S_v3d_mesh_data":{"colorLayers":{},"uvLayers":{"MapaUV":"TEXCOORD_0"}}},"name":"Plano","primitives":[{"attributes":{"NORMAL":2,"POSITION":1,"TEXCOORD_0":3},"indices":0,"material":0,"mode":4}]}],"nodes":[{"camera":0,"extensions":{"S8S_v3d_node_data":{"frustumCulling":true,"groupNames":["Collection"],"hidden":false,"renderOrder":0}},"name":"Camera","rotation":[-2.1073401512694545e-06,0.0,0.0,1.0],"scale":[0.1650901436805725,0.16509012877941132,0.16509012877941132],"translation":[0.0,1.1866401337101706e-06,0.27758389711380005]},{"extensions":{"S8S_v3d_node_data":{"frustumCulling":true,"groupNames":["Collection"],"hidden":false,"renderOrder":0}},"mesh":0,"name":"Plano","rotation":[0.7071068286895752,0.0,-0.0,0.7071067094802856],"scale":[0.010000004433095455,0.010000004433095455,0.010000004433095455]}],"samplers":[{},{"magFilter":9729,"minFilter":9987,"wrapS":33071,"wrapT":33071}],"scene":0,"scenes":[{"extensions":{"S8S_v3d_scene_data":{"aaMethod":"AUTO","iblEnvironmentMode":"PROBE","physicallyCorrectLights":true,"pmremMaxTileSize":512,"worldMaterial":1}},"extras":{"animFrameRate":24,"coordSystem":"Z_UP_RIGHT"},"name":"Scene","nodes":[0,1]}],"textures":[{"extensions":{"S8S_v3d_texture_data":{"colorSpace":"srgb"}},"name":"1_a.jpg","sampler":0,"source":0},{"extensions":{"S8S_v3d_texture_data":{"colorSpace":"srgb"}},"name":"1.jpg","sampler":0,"source":1},{"extensions":{"S8S_v3d_texture_data":{"colorSpace":"srgb"}},"name":"logo pixcoop x1024.png","sampler":1,"source":2}]}
